#!OML:ASF F:\VICON\USERDATA\INSTALL\rory3\rory3.ASF
:FULLY-SPECIFIED
:DEGREES
131
root 6.02816 17.9789 4.22925 -164.194 -33.0492 174.053
lowerback -6.77085 -1.8704 -6.24619
upperback -2.3335 -2.22336 -1.81587
thorax 1.53395 -1.18061 1.44313
lowerneck -18.436 0.751011 2.09882
upperneck 23.3807 0.230096 -0.964764
head 10.5638 0.0025378 -0.6964
rclavicle 7.34509e-014 -3.73715e-014
rhumerus -35.3635 10.0965 -91.1706
rradius 32.8738
rwrist 1.42831
rhand -21.8271 11.62
rfingers 7.12502
rthumb 4.57574 -18.3106
lclavicle 7.34509e-014 -3.73715e-014
lhumerus -31.2564 -17.9492 87.8083
lradius 48.3996
lwrist 15.7332
lhand -11.2986 27.4956
lfingers 7.12502
lthumb 14.7329 56.9521
rfemur -39.0359 -8.06639 14.4091
rtibia 45.1887
rfoot -15.2408 3.75024
rtoes -13.5165
lfemur -20.0447 12.3743 -31.4279
ltibia 28.8795
lfoot -20.881 -16.1503
ltoes -4.48894
132
root 5.98682 17.9814 4.14148 -164.227 -33.1605 174.342
lowerback -6.57156 -1.8701 -6.20433
upperback -2.47385 -2.25042 -1.68318
thorax 1.28354 -1.18472 1.56449
lowerneck -18.3966 0.731782 2.10307
upperneck 23.3396 0.188475 -0.906676
head 10.5406 -0.00855483 -0.681912
rclavicle 7.15376e-014 3.4191e-014
rhumerus -35.4591 9.88731 -91.0334
rradius 32.7954
rwrist 1.55703
rhand -21.7346 11.8376
rfingers 7.12502
rthumb 4.665 -18.0911
lclavicle 7.15376e-014 3.4191e-014
lhumerus -31.4929 -18.1482 87.9025
lradius 48.574
lwrist 15.7616
lhand -11.2544 27.3571
lfingers 7.12502
lthumb 14.7754 56.8104
rfemur -39.4194 -7.57274 14.9301
rtibia 43.0963
rfoot -15.0437 2.90409
rtoes -13.4176
lfemur -19.5456 12.2926 -31.0538
ltibia 28.2416
lfoot -20.7728 -15.8402
ltoes -4.43396
133
root 5.8984 17.9908 4.02972 -164.264 -33.1417 174.268
lowerback -6.8512 -1.8537 -6.07561
upperback -2.42358 -2.21247 -1.74869
thorax 1.48143 -1.17286 1.41787
lowerneck -18.3909 0.711434 2.07204
upperneck 23.3471 0.141447 -0.806003
head 10.5414 -0.0208032 -0.64754
rclavicle 4.84041e-014 -1.66979e-014
rhumerus -35.594 9.71392 -90.9348
rradius 32.7176
rwrist 1.70604
rhand -21.6488 12.2763
rfingers 7.12502
rthumb 4.74786 -17.6505
lclavicle 4.84041e-014 -1.66979e-014
lhumerus -31.7567 -18.3671 87.9893
lradius 48.6322
lwrist 15.8239
lhand -11.722 27.0257
lfingers 7.12502
lthumb 14.3249 56.5115
rfemur -39.308 -7.77169 15.0818
rtibia 40.8785
rfoot -14.7176 2.82708
rtoes -13.9598
lfemur -18.6331 12.5074 -31.0494
ltibia 27.7843
lfoot -20.8715 -16.0537
ltoes -3.91107
134
root 5.83625 17.9959 3.93012 -164.293 -33.3461 174.392
lowerback -6.8638 -1.90365 -5.97254
upperback -2.45724 -2.28545 -1.67386
thorax 1.45824 -1.2072 1.43175
lowerneck -18.4482 0.689601 2.00454
upperneck 23.3755 0.10988 -0.729798
head 10.5621 -0.0316799 -0.613676
rclavicle 3.03395e-014 1.66979e-014
rhumerus -35.692 9.52227 -90.7924
rradius 32.6501
rwrist 1.80827
rhand -21.4907 12.7262
rfingers 7.12502
rthumb 4.90055 -17.1971
lclavicle 3.03395e-014 1.66979e-014
lhumerus -31.9357 -18.4733 88.0834
lradius 48.6203
lwrist 15.8206
lhand -11.7452 27.0803
lfingers 7.12502
lthumb 14.3025 56.5677
rfemur -39.4288 -7.7667 15.5166
rtibia 38.6896
rfoot -14.4909 2.1452
rtoes -16.1287
lfemur -17.9124 12.5495 -30.7947
ltibia 27.1674
lfoot -20.9342 -16.1634
ltoes -5.15541
135
root 5.79014 18.0023 3.83596 -164.412 -33.6671 174.639
lowerback -6.6054 -1.94449 -5.8857
upperback -2.55479 -2.36867 -1.55195
thorax 1.22163 -1.23982 1.51355
lowerneck -18.3703 0.651509 2.01963
upperneck 23.3317 0.047103 -0.705897
head 10.5303 -0.0562845 -0.616329
rclavicle -8.2595e-014 2.14687e-014
rhumerus -35.8648 9.24674 -90.6664
rradius 32.6559
rwrist 1.86762
rhand -21.5619 11.9971
rfingers 7.12502
rthumb 4.83179 -17.9278
lclavicle -8.2595e-014 2.14687e-014
lhumerus -32.1659 -18.6902 88.2281
lradius 48.59
lwrist 15.8417
lhand -11.4432 27.3575
lfingers 7.12502
lthumb 14.5935 56.8241
rfemur -39.5284 -7.5394 16.0501
rtibia 36.5196
rfoot -14.4094 1.07397
rtoes -17.4144
lfemur -17.1796 12.4305 -30.347
ltibia 26.4275
lfoot -20.6691 -16.3158
ltoes -5.03528
136
root 5.70148 18.0111 3.72011 -164.264 -33.646 174.161
lowerback -6.89981 -1.95929 -6.13025
upperback -2.46863 -2.34883 -1.67949
thorax 1.47598 -1.23965 1.50699
lowerneck -18.268 0.622643 1.96517
upperneck 23.2426 0.0139077 -0.653787
head 10.4777 -0.0695368 -0.592559
rclavicle -6.85559e-014 2.5842e-014
rhumerus -35.9944 9.0037 -90.5281
rradius 32.6123
rwrist 2.03855
rhand -21.7299 10.1897
rfingers 7.12502
rthumb 4.66959 -19.7388
lclavicle -6.85559e-014 2.5842e-014
lhumerus -32.4048 -18.7649 88.3424
lradius 48.5168
lwrist 15.7076
lhand -11.197 27.4143
lfingers 7.12502
lthumb 14.8307 56.8635
rfemur -39.3706 -7.99865 15.9537
rtibia 34.4089
rfoot -14.4804 1.04977
rtoes -17.202
lfemur -16.0453 12.5221 -30.6841
ltibia 25.6738
lfoot -20.826 -16.4306
ltoes -5.10781
